{"title":"Ant.And.Decs.Saturday.Night.Takeaway.S10E03.WS.PDTV.x264-W33D.mp","uid":8240812,"size":514343987,"categoryP":"video","categoryS":"tv_shows","magnet":"?xt=urn:btih:b7644dbe308bc75b48fae9e0a208dbd26403e390&amp;dn=Ant.And.Decs.Saturday.Night.Takeaway.S10E03.WS.PDTV.x264-W33D.mp&amp;tr=udp%3A%2F%2Ftracker.openbittorrent.com%3A80&amp;tr=udp%3A%2F%2Fopen.demonii.com%3A1337&amp;tr=udp%3A%2F%2Ftracker.coppersurfer.tk%3A6969&amp;tr=udp%3A%2F%2Fexodus.desync.com%3A6969","seeders":1,"leechers":0,"uploader":"shane1989","files":1,"time":1362954565,"description":"Season 10 Episode 3 of 8\nWith Alan Carr in the voiceover booth, the Geordie duo present more entertainment, surprises and competitions, and go head to head in their latest challenge. Another famous face takes part in hidden-camera sketch I'm a Celebrity Get Out of Me Ear, Britain's Got Talent 2010 champions Spelbound perform at the end of the show and, as usual, one member of the studio audience plays to take home the contents of a commercial break in Win the Ads.\n\n\n\n\nGeneral\n\nComplete name                            : Ant.And.Decs.Saturday.Night.Takeaway.S10E03.WS.PDTV.x264-W33D.mp4\n\nFormat                                   : MPEG-4\nFormat profile                           : Base Media\nCodec ID                                 : isom\nFile size                                : 491 MiB\nDuration                                 : 59mn 24s\nOverall bit rate mode                    : Variable\nOverall bit rate                         : 1 154 Kbps\nWriting application                      : Lavf52.64.2\n\nVideo\nID                                       : 1\nFormat                                   : AVC\nFormat/Info                              : Advanced Video Codec\nFormat profile                           : &lt;a class=&quot;__cf_email__&quot; href=&quot;/cdn-cgi/l/email-protection&quot; data-cfemail=&quot;e6ae8f818ea6aad5c8d7&quot;&gt;[email&amp;#160;protected]&lt;/a&gt;&lt;script cf-hash='f9e31' type=&quot;text/javascript&quot;&gt;\n/* &lt;![CDATA[ */!function(){try{var t=&quot;currentScript&quot;in document?document.currentScript:function(){for(var t=document.getElementsByTagName(&quot;script&quot;),e=t.length;e--;)if(t[e].getAttribute(&quot;cf-hash&quot;))return t[e]}();if(t&amp;&amp;t.previousSibling){var e,r,n,i,c=t.previousSibling,a=c.getAttribute(&quot;data-cfemail&quot;);if(a){for(e=&quot;&quot;,r=parseInt(a.substr(0,2),16),n=2;a.length-n;n+=2)i=parseInt(a.substr(n,2),16)^r,e+=String.fromCharCode(i);e=document.createTextNode(e),c.parentNode.replaceChild(e,c)}}}catch(u){}}();/* ]]&gt; */&lt;/script&gt;\nFormat settings, CABAC                   : Yes\nFormat settings, ReFrames                : 4 frames\nCodec ID                                 : avc1\nCodec ID/Info                            : Advanced Video Coding\nDuration                                 : 59mn 24s\nBit rate                                 : 956 Kbps\nWidth                                    : 688 pixels\nHeight                                   : 384 pixels\nDisplay aspect ratio                     : 16:9\nFrame rate mode                          : Constant\nFrame rate                               : 25.000 fps\nColor space                              : YUV\nChroma subsampling                       : 4:2:0\nBit depth                                : 8 bits\nScan type                                : Progressive\nBits/(Pixel*Frame)                       : 0.145\nStream size                              : 406 MiB (83%)\n\nAudio\nID                                       : 2\nFormat                                   : AAC\nFormat/Info                              : Advanced Audio Codec\nFormat profile                           : LC\nCodec ID                                 : 40\nDuration                                 : 59mn 24s\nDuration_LastFrame                       : -21ms\nBit rate mode                            : Variable\nBit rate                                 : 192 Kbps\nChannel(s)                               : 2 channels\nChannel positions                        : Front: L R\nSampling rate                            : 48.0 KHz\nCompression mode                         : Lossy\nDelay relative to video                  : 200ms\nStream size                              : 81.6 MiB (17%) \n\n\n","torrent":{"xt":"urn:btih:b7644dbe308bc75b48fae9e0a208dbd26403e390","amp;dn":"Ant.And.Decs.Saturday.Night.Takeaway.S10E03.WS.PDTV.x264-W33D.mp","amp;tr":["udp%3A%2F%2Ftracker.openbittorrent.com%3A80","udp%3A%2F%2Fopen.demonii.com%3A1337","udp%3A%2F%2Ftracker.coppersurfer.tk%3A6969","udp%3A%2F%2Fexodus.desync.com%3A6969"],"infoHash":"b7644dbe308bc75b48fae9e0a208dbd26403e390","infoHashBuffer":{"type":"Buffer","data":[183,100,77,190,48,139,199,91,72,250,233,224,162,8,219,210,100,3,227,144]},"announce":[],"urlList":[]}}